# xmcd
#
# Track frame offsets: 
#        150
#        18415
#        21570
#        34905
#        52897
#        66597
#        85286
#        99633
#        104259
#        124042
#        167096
#        193397
#        209986
#
# Disc length: 2979 seconds
#
# Revision: 1
# Processed by: cddbd v1.5.2PL0 Copyright (c) Steve Scherf et al.
# Submitted via: ExactAudioCopy v0.99pb5
#
DISCID=c40ba10d
DTITLE=HGIchT - Mein Hobby: Arschloch
DYEAR=1900
DGENRE=
TTITLE0=Heute Geh Ich Wirklich
TTITLE1=Hauptschuhle
TTITLE2=Der Geile Max
TTITLE3=Die Affengeile Klopapiernummer
TTITLE4=Der Storch
TTITLE5=Harz For
TTITLE6=Kunstlerschweine
TTITLE7=Verarschen Kann Ich Mich Selbst
TTITLE8=Tripmeister Eder
TTITLE9=Um 12 Geht Der Sarg Auf
TTITLE10=Tutenchamun
TTITLE11=Franz Kafka
TTITLE12=Die Geile Wiebke
EXTD=
EXTT0=
EXTT1=
EXTT2=
EXTT3=
EXTT4=
EXTT5=
EXTT6=
EXTT7=
EXTT8=
EXTT9=
EXTT10=
EXTT11=
EXTT12=
PLAYORDER=
